# xmcd CD database file
#
# Track frame offsets:
#	150
#	10120
#	22735
#	33170
#	53510
#	65757
#	76177
#	89979
#	104915
#	116855
#	130582
#	144895
#	157435
#	169990
#	183077
#	194102
#	205357
#	217287
#	229865
#	241827
#	254315
#	266912
#	281167
#	293107
#	304302
#	318817
#
# Disc length: 4362 seconds
#
# Revision: 0
# Processed by: cddbd v1.5.2PL0 Copyright (c) Steve Scherf et al.
# Submitted via: CDex 1.70beta2
#
DISCID=8e11081a
DTITLE=Jones Classic Country - Jones Classic Country CCC-607
DYEAR=0000
DGENRE=Country
TTITLE0=Louvin Brothers/I Don't Believe You Met My Baby
TTITLE1=Ray Price/Same Old Me
TTITLE2=Statler Brothers/You Can't Have Your Kate and Edith, Too
TTITLE3=Elvis Presley/An American Trilogy
TTITLE4=Conway Twitty and Loretta Lynn/After The Fire Is Gone
TTITLE5=Jan Howard/Evil On Your Mind
TTITLE6=Roy Clark/Come Live With Me
TTITLE7=Jeannie C Riley/Harper Valley P T A
TTITLE8=Johnny Cash/Ring Of Fire
TTITLE9=Tammy Wynette/DIVORCE
TTITLE10=George Jones/Loving You Could Never Be Better
TTITLE11=Wynn Stewart/Wishful Thinking
TTITLE12=Bobby Bare/500 Miles From Home
TTITLE13=Hank Snow/I'm Movin' On
TTITLE14=Everly Brothers/Bye Bye Love
TTITLE15=Jerry Lee Lewis/Another Time Another Place
TTITLE16=Marty Robbins/That's All Right
TTITLE17=Charlie Rich/Most Beautiful Girl
TTITLE18=Patsy Cline/Walkin' After Midnight
TTITLE19=Sonny James/A Little Bit South Of Saskatoon
TTITLE20=Stonewall Jackson/I Washed My Hands In Muddy Water
TTITLE21=Dolly Parton/Coat Of Many Colors
TTITLE22=Faron Young/Country Girl
TTITLE23=Sonny James/I'll Never Find Another You
TTITLE24=Tex Ritter/I Dreamed Of A Hillbilly Heaven
TTITLE25=Roger Miller/Dang Me
EXTD=YEAR: 0000
EXTT0=
EXTT1=
EXTT2=
EXTT3=
EXTT4=
EXTT5=
EXTT6=
EXTT7=
EXTT8=
EXTT9=
EXTT10=
EXTT11=
EXTT12=
EXTT13=
EXTT14=
EXTT15=
EXTT16=
EXTT17=
EXTT18=
EXTT19=
EXTT20=
EXTT21=
EXTT22=
EXTT23=
EXTT24=
EXTT25=
PLAYORDER=
